<?xml version="1.0" standalone="no"?>
<!DOCTYPE svg PUBLIC "-//W3C//DTD SVG 20010904//EN"
 "http://www.w3.org/TR/2001/REC-SVG-20010904/DTD/svg10.dtd">
<svg version="1.0" xmlns="http://www.w3.org/2000/svg"
 width="260.000000pt" height="260.000000pt" viewBox="0 0 260.000000 260.000000"
 preserveAspectRatio="xMidYMid meet">
<metadata>
Created by potrace 1.11, written by Peter Selinger 2001-2013
</metadata>
<g transform="translate(0.000000,260.000000) scale(0.100000,-0.100000)"
fill="#000000" stroke="none">
<path d="M553 1925 c-42 -18 -67 -59 -66 -105 2 -36 -6 -45 -198 -236 -109
-109 -209 -202 -222 -207 -58 -21 -81 -71 -56 -120 16 -29 13 -27 54 -41 24
-9 101 -76 240 -210 186 -180 205 -201 205 -231 0 -21 9 -44 24 -62 20 -23 32
-28 71 -28 39 0 51 5 71 28 13 15 24 39 24 51 0 17 57 79 216 232 118 115 223
211 232 214 43 13 72 49 72 88 0 29 -36 70 -68 77 -16 3 -54 32 -86 64 l-58
58 143 142 c139 138 143 141 163 124 11 -10 54 -50 96 -90 41 -39 95 -90 119
-113 l45 -40 38 37 38 37 -58 56 c-266 251 -265 250 -298 250 -28 0 -53 -21
-195 -160 -90 -88 -167 -160 -171 -160 -4 0 -52 43 -107 96 -98 94 -100 98
-99 140 1 53 -19 86 -65 108 -42 19 -62 20 -104 1z m80 -46 c29 -16 37 -28 37
-61 0 -49 -63 -74 -108 -42 -33 23 -28 83 8 101 31 16 36 16 63 2z m138 -259
c54 -51 99 -96 99 -100 0 -4 -38 -46 -85 -93 -114 -115 -114 -120 2 -238 48
-49 92 -89 98 -89 6 0 26 15 44 33 l32 34 -71 70 -70 70 66 68 66 67 49 -48
c43 -43 49 -52 45 -84 -2 -19 0 -42 5 -51 6 -13 -13 -38 -87 -110 -223 -221
-309 -299 -322 -294 -8 3 -28 5 -46 5 -29 0 -56 23 -234 196 -157 152 -200
200 -193 212 5 9 5 29 0 46 -9 30 -5 35 176 216 l185 185 71 -1 71 -1 99 -93z
m-129 -817 c25 -23 22 -50 -8 -70 -24 -15 -29 -15 -53 -2 -32 18 -38 45 -15
70 21 23 51 24 76 2z"/>
<path d="M1926 1884 c-14 -15 -26 -36 -26 -48 0 -13 -33 -52 -90 -106 -49 -47
-141 -136 -205 -198 -76 -75 -124 -115 -142 -118 -74 -12 -113 -52 -113 -114
0 -48 55 -100 107 -100 33 0 46 -7 87 -49 l48 -49 -138 -136 c-75 -75 -140
-136 -143 -136 -3 0 -65 59 -138 132 l-133 132 -35 -34 c-19 -19 -35 -37 -35
-41 0 -6 155 -164 262 -267 48 -46 79 -57 111 -40 39 20 539 523 553 555 8 19
11 40 6 52 -11 31 -172 190 -185 184 -7 -2 -24 -19 -39 -37 l-27 -33 69 -68
68 -68 -70 -71 -71 -71 -43 44 c-37 38 -42 47 -37 75 3 17 7 33 9 35 2 2 -3
18 -10 36 l-14 32 196 189 c107 104 199 188 203 187 4 -1 23 -4 42 -6 30 -4
59 -27 193 -158 86 -85 175 -171 197 -193 33 -32 38 -43 33 -67 -3 -16 -1 -41
5 -56 10 -26 3 -34 -181 -216 -157 -154 -194 -186 -206 -176 -9 7 -32 10 -60
6 l-47 -5 -95 94 c-53 52 -99 94 -102 94 -4 0 -16 -11 -28 -24 l-21 -25 100
-98 c93 -91 99 -99 93 -129 -8 -46 19 -99 62 -119 79 -37 166 14 169 101 2 45
3 46 196 238 126 125 204 195 222 200 98 24 101 152 4 177 -35 9 -74 42 -246
209 -173 169 -204 203 -207 232 -8 72 -96 103 -148 52z m-422 -540 c19 -18 21
-65 4 -82 -31 -31 -108 -2 -108 41 0 49 70 76 104 41z m531 -529 c14 -13 25
-31 25 -40 0 -23 -45 -65 -70 -65 -26 0 -70 43 -70 69 0 23 44 61 72 61 10 0
30 -11 43 -25z"/>
</g>
</svg>
